<svg width="61" height="60" viewBox="0 0 61 60" fill="none" xmlns="http://www.w3.org/2000/svg">
<path d="M57.1194 21.2612C56.3276 18.8096 56.6651 15.1296 54.6073 12.2881C52.5333 9.42428 48.9262 8.6103 46.8894 7.12061C44.874 5.64663 42.999 2.43909 39.6089 1.33284C36.3144 0.25776 32.9455 1.71663 30.3333 1.71663C27.7216 1.71663 24.3529 0.257409 21.0578 1.33272C17.6683 2.43874 15.7918 5.64698 13.7777 7.12026C11.7431 8.60819 8.13323 9.4244 6.05959 12.2878C4.00354 15.1269 4.33764 18.8153 3.54733 21.261C2.79522 23.5887 0.333344 26.3824 0.333344 30.0002C0.333344 33.6202 2.79241 36.4031 3.54733 38.7392C4.33905 41.1908 4.00155 44.8708 6.05936 47.7122C8.13323 50.5762 11.7403 51.3901 13.7773 52.8799C15.7924 54.3536 17.6677 57.5614 21.0578 58.6675C24.3501 59.7419 27.7243 58.2837 30.3333 58.2837C32.9388 58.2837 36.3208 59.7404 39.6089 58.6676C42.9985 57.5616 44.8739 54.3541 46.889 52.8801C48.9236 51.3922 52.5335 50.576 54.6071 47.7126C56.6633 44.8734 56.3289 41.1853 57.1194 38.7393C57.8715 36.4115 60.3333 33.6179 60.3333 30.0002C60.3333 26.3804 57.8749 23.5983 57.1194 21.2612ZM52.6591 37.2979C51.7362 40.1544 51.978 43.3511 50.8108 44.9629C49.6279 46.5962 46.5202 47.3422 44.1222 49.0962C41.7505 50.8307 40.0882 53.5803 38.1548 54.2111C36.3257 54.8081 33.3449 53.596 30.3335 53.596C27.2999 53.596 24.3499 54.8106 22.512 54.2111C20.5789 53.5803 18.9189 50.8326 16.5446 49.0961C14.1608 47.3527 11.0354 46.5914 9.85588 44.9627C8.69245 43.3563 8.92506 40.1374 8.00784 37.298C7.10877 34.5161 5.02084 32.1073 5.02084 30.0002C5.02084 27.8909 7.1069 25.4905 8.0076 22.7024C8.93045 19.8461 8.68869 16.6491 9.85588 15.0374C11.0381 13.4053 14.1481 12.6568 16.5446 10.9041C18.9239 9.16401 20.5757 6.421 22.5118 5.78924C24.3393 5.19299 27.3298 6.40436 30.3332 6.40436C33.3722 6.40436 36.3149 5.18889 38.1547 5.78924C40.0876 6.41995 41.7489 9.1687 44.1222 10.9042C46.5057 12.6476 49.6313 13.409 50.8108 15.0376C51.9745 16.6443 51.7406 19.8599 52.6589 22.7022V22.7023C53.5579 25.4842 55.6458 27.893 55.6458 30.0002C55.6458 32.1094 53.5598 34.5099 52.6591 37.2979ZM41.1314 22.4773C42.0467 23.3927 42.0467 24.8766 41.1314 25.7919L29.4002 37.523C28.4848 38.4384 27.0008 38.4383 26.0855 37.523L19.5355 30.973C18.6201 30.0576 18.62 28.5737 19.5353 27.6584C20.4507 26.7432 21.9349 26.7431 22.8499 27.6584L27.7428 32.5512L37.8166 22.4774C38.7319 21.5621 40.216 21.5621 41.1314 22.4773Z" fill="#242424"/>
</svg>
